HIERARCHY
ROOT Hips
{
    OFFSET 0.0 0.0 0.0
    CHANNELS 6 Xposition Yposition Zposition Zrotation Xrotation Yrotation
    JOINT LeftHipJoint
    {
        OFFSET 0.1 0.0 0.0
        CHANNELS 3 Zrotation Xrotation Yrotation
        JOINT LeftUpLeg
        {
            OFFSET 125.83464382207663 0.0 0.0
            CHANNELS 3 Zrotation Xrotation Yrotation
            JOINT LeftLeg
            {
                OFFSET 0.0 0.0 -414.82607048099214
                CHANNELS 3 Zrotation Xrotation Yrotation
                JOINT LeftFoot
                {
                    OFFSET 0.0 0.0 -392.7967947696058
                    CHANNELS 3 Zrotation Xrotation Yrotation
                    End Site
                    {
                        OFFSET 0.0 -0.1 0.0
                    }
                }
            }
        }
    }
    JOINT LowerBack
    {
        OFFSET 0.0 0.0 0.1
        CHANNELS 3 Zrotation Xrotation Yrotation
        JOINT Spine
        {
            OFFSET 0.0 0.0 217.9672779590923
            CHANNELS 3 Zrotation Xrotation Yrotation
            JOINT Spine1
            {
                OFFSET 0.0 0.0 251.1903602628209
                CHANNELS 3 Zrotation Xrotation Yrotation
                JOINT LeftShoulder
                {
                    OFFSET 0.1 0.0 0.0
                    CHANNELS 3 Zrotation Xrotation Yrotation
                    JOINT LeftArm
                    {
                        OFFSET 141.0918893818435 0.0 0.0
                        CHANNELS 3 Zrotation Xrotation Yrotation
                        JOINT LeftForeArm
                        {
                            OFFSET 263.0128406815156 0.0 0.0
                            CHANNELS 3 Zrotation Xrotation Yrotation
                            JOINT LeftHand
                            {
                                OFFSET 240.57273691128364 0.0 0.0
                                CHANNELS 3 Zrotation Xrotation Yrotation
                                End Site
                                {
                                    OFFSET 0.1 0.0 0.0
                                }
                            }
                        }
                    }
                }
                JOINT Neck
                {
                    OFFSET 0.0 0.0 0.1
                    CHANNELS 3 Zrotation Xrotation Yrotation
                    JOINT Neck1
                    {
                        OFFSET 0.0 0.0 104.12248585209807
                        CHANNELS 3 Zrotation Xrotation Yrotation
                        End Site
                        {
                            OFFSET 0.0 0.0 115.43583001579037
                        }
                    }
                }
                JOINT RightShoulder
                {
                    OFFSET -0.1 0.0 0.0
                    CHANNELS 3 Zrotation Xrotation Yrotation
                    JOINT RightArm
                    {
                        OFFSET -141.0918893818435 0.0 0.0
                        CHANNELS 3 Zrotation Xrotation Yrotation
                        JOINT RightForeArm
                        {
                            OFFSET -263.0128406815156 0.0 0.0
                            CHANNELS 3 Zrotation Xrotation Yrotation
                            JOINT RightHand
                            {
                                OFFSET -240.57273691128364 0.0 0.0
                                CHANNELS 3 Zrotation Xrotation Yrotation
                                End Site
                                {
                                    OFFSET -0.1 0.0 0.0
                                }
                            }
                        }
                    }
                }
            }
        }
    }
    JOINT RightHipJoint
    {
        OFFSET -0.1 0.0 0.0
        CHANNELS 3 Zrotation Xrotation Yrotation
        JOINT RightUpLeg
        {
            OFFSET -125.83464382207663 0.0 0.0
            CHANNELS 3 Zrotation Xrotation Yrotation
            JOINT RightLeg
            {
                OFFSET 0.0 0.0 -414.82607048099214
                CHANNELS 3 Zrotation Xrotation Yrotation
                JOINT RightFoot
                {
                    OFFSET 0.0 0.0 -392.7967947696058
                    CHANNELS 3 Zrotation Xrotation Yrotation
                    End Site
                    {
                        OFFSET 0.0 -0.1 0.0
                    }
                }
            }
        }
    }
}
MOTION
Frames: 8
Frame Time: 0.03333333333333333
0.0 0.0 820.231486751202 29.266891077174048 -4.639728723869709 3.9113067078856103 0.0 0.0 0.0 0.10559714493766581 -11.825288175887735 1.3670031904648725 0.523702844592642 31.21819601350778 -0.4567062736097947 3.1805546814635168e-15 -3.975693351829396e-16 1.1034765745125397e-32 0.0 0.0 0.0 -0.01018128408150566 1.1915663759046369 2.507785979512315 3.974374667865159 -2.331304142196192e-16 -9.86432539898963e-16 3.4483642953516864e-34 1.987846675914698e-16 -1.987846675914698e-16 -33.75818570738083 28.761922225939465 77.03587915310668 -27.794811263536705 -2.633835009435787e-15 -1.2528869076782383e-14 0.0 0.0 4.534775229430404e-16 3.4483642953516864e-34 1.987846675914698e-16 -1.987846675914698e-16 -14.02338547552352 1.0284390219205413 -7.829938140763604 3.4483642953516864e-34 1.987846675914698e-16 -1.987846675914698e-16 16.30437774389638 -50.496619951704645 -27.93552908891479 120.80254287903323 -5.531022059647842e-15 -3.1418954952077754e-15 7.951386703658792e-16 0.0 0.0 0.0 0.0 0.0 0.038489233347576805 -4.816929648077318 -5.860085965886175 -3.2269165588113626 26.837046709793963 1.0817305437391536 0.0 0.0 0.0
0.0 0.0 820.231486751202 29.293755627899028 -4.664576250518366 3.903520311540769 0.0 0.0 0.0 0.10777885958133097 -11.795860070230521 1.1459370289872124 0.38313656234841453 31.26995853019004 -0.2689139138047938 0.0 0.0 -3.975693351829396e-16 0.0 0.0 0.0 -0.010103350182782824 1.1543552060653175 2.5177063453029342 3.9804508585790512 7.877554228502213e-16 -2.2627912619315598e-16 6.3611093629270335e-15 -1.987846675914698e-16 -3.975693351829396e-16 -32.575753983400745 28.699981341535956 76.63738074162434 -27.62546168316446 -5.1895925230529054e-15 4.45581606699643e-15 0.0 0.0 1.9800816498369062e-16 6.3611093629270335e-15 -1.987846675914698e-16 -3.975693351829396e-16 -14.013045130583569 1.1188735112342427 -7.982748644670016 6.3611093629270335e-15 -1.987846675914698e-16 -3.975693351829396e-16 16.85903428188846 -50.752582867140745 -27.451621990783746 120.59704895184828 7.782392454499669e-16 -1.4202566856467578e-14 0.0 0.0 0.0 0.0 0.0 0.0 0.03843361775365964 -4.6912215322979165 -5.938441422100947 -3.2207688518072106 26.466415758216428 0.9231585541722964 0.0 0.0 0.0
0.0 0.0 820.231486751202 29.50372044835815 -4.840547582231864 3.940706953789137 0.0 0.0 0.0 0.09728403532901228 -11.567715148674441 0.956176360366742 0.29349390330627656 31.259568198380315 -0.06602059181212826 0.0 0.0 0.0 0.0 0.0 0.0 -0.009709453954187226 1.2083436791320485 2.5083277779409463 3.9567051068073438 9.590187741838543e-16 -1.0276430286025664e-15 0.0 0.0 0.0 -31.72142089082333 28.62924942008874 76.24321936052864 -27.470465905168457 6.393499404532064e-15 -1.2761828998475818e-14 0.0 0.0 3.9135731432070616e-16 0.0 0.0 0.0 -14.086917785690279 1.2141359922905353 -7.995246083824134 0.0 0.0 0.0 17.167728859315016 -50.86437147408822 -27.25968300929622 120.49778951113434 6.313187961724828e-15 -1.104529343514262e-14 0.0 0.0 0.0 0.0 0.0 0.0 0.033362429712626616 -4.480807848835075 -6.049713651836716 -3.2382799720212208 26.341406347888835 0.817082760032175 0.0 0.0 -7.951386703658792e-16
0.0 0.0 820.231486751202 29.50758237794345 -4.900563757078621 3.903264678452624 -3.1805546814635168e-15 -5.517382872562698e-33 1.987846675914698e-16 0.09250089162833139 -11.362997353723483 0.824313459344776 0.22193497419265376 31.123336428462906 0.12342199126918703 0.0 -3.975693351829396e-16 0.0 -3.1805546814635168e-15 -5.517382872562698e-33 1.987846675914698e-16 -0.008842608942479131 1.13830705380094 2.5351111387129954 4.054820323885025 1.1497662450506033e-15 -1.2341565357533536e-15 0.0 1.9878466759146977e-16 0.0 -30.88255193888377 28.462593692255588 75.82014739201016 -27.448376311205674 3.985811898732421e-15 -2.9144932318971667e-15 0.0 0.0 -2.857529596627378e-16 0.0 1.9878466759146977e-16 0.0 -14.132641081567787 1.3357365294839831 -7.954204105449273 0.0 1.9878466759146977e-16 0.0 17.934142732375758 -50.62264008115966 -26.615432493626734 120.08627877394248 0.0 0.0 0.0 0.0 0.0 -3.1805546814635168e-15 -5.517382872562698e-33 1.987846675914698e-16 0.030841559766336415 -4.31247135250734 -6.016331088963706 -3.1726276344125917 26.04936445385257 0.5587058542415234 0.0 0.0 0.0
0.0 0.0 820.231486751202 29.594654632568176 -4.907475605668911 3.8005440537396606 0.0 0.0 0.0 0.10237768665358778 -11.258083966131316 0.8308037510414515 0.1908480234317038 30.851509063746818 0.11014622219394969 0.0 0.0 0.0 0.0 0.0 0.0 -0.010250990933831795 1.1775426778359321 2.647370085998305 4.206428573016744 2.3765136916447294e-15 -2.861949746161842e-16 -6.361109362927033e-15 1.987846675914698e-16 -3.9756933518293955e-16 -30.119833376763246 28.133066111102778 75.3911249400152 -27.36517752669817 -1.084760032363021e-15 7.817247390332491e-15 0.0 0.0 6.212020862233433e-15 -6.361109362927033e-15 1.987846675914698e-16 -3.9756933518293955e-16 -14.21138971114312 1.3327551345467787 -7.918351290756417 -6.361109362927033e-15 1.987846675914698e-16 -3.9756933518293955e-16 18.538761164404423 -50.591164258072375 -26.04175095617189 119.54354175386932 0.0 0.0 0.0 0.0 0.0 0.0 0.0 0.0 0.03401978345372831 -4.217562908661481 -5.997428029730159 -3.169918669335265 25.907576691205644 0.5373683503586344 0.0 0.0 0.0
0.0 0.0 820.231486751202 29.7106172107542 -4.9586081897852035 3.7303958377354594 0.0 0.0 0.0 0.10934811065169484 -11.044981883934 0.804233288906508 0.14468387338834224 30.354128078618185 0.1473025640139199 0.0 0.0 0.0 0.0 0.0 0.0 -0.011308905612666965 1.1906986033070626 2.7576327812453285 4.315344296593811 7.870907597200932e-16 -2.2858036911317617e-16 0.0 1.987846675914698e-16 0.0 -29.2873832039155 27.983180734914257 74.92099827652976 -27.50351581712152 1.8008790116691445e-16 -7.425689698931976e-15 0.0 0.0 -1.7393658414253607e-16 0.0 1.987846675914698e-16 0.0 -14.304596704011562 1.4045638982341762 -7.9615192798557874 0.0 1.987846675914698e-16 0.0 18.822001162658793 -50.5491001640641 -25.72402467987891 119.3317939537427 2.277618499651231e-15 8.702866115497952e-15 0.0 0.0 0.0 0.0 0.0 0.0 0.0361743337593897 -4.097159877024608 -6.03046864268447 -3.1571768128517452 25.54601239397854 0.5649779100271581 0.0 0.0 0.0
0.0 0.0 820.231486751202 29.76173233887692 -5.006646271326991 3.572551890265647 0.0 0.0 0.0 0.1388169356300168 -10.947061685412185 0.9072586686440786 0.1098623032656497 30.07674939885913 0.19449048241500963 0.0 0.0 -3.975693351829396e-16 0.0 0.0 0.0 -0.014201741636292899 1.1593600020711403 2.9165219786796794 4.398907109229879 5.340309381970173e-17 1.3904675361092003e-15 -6.896728590703373e-33 9.939233379573488e-16 7.951386703658791e-16 -28.833927562398326 27.82752413353913 74.63090485962294 -27.398994382455115 -6.559155156791255e-16 -9.06022582992956e-15 0.0 0.0 1.8636062586700292e-15 -6.896728590703373e-33 9.939233379573488e-16 7.951386703658791e-16 -14.258490526336077 1.4579836727878046 -7.944899280968882 -6.896728590703373e-33 9.939233379573488e-16 7.951386703658791e-16 19.550889537667086 -50.47406289840737 -25.02145665449416 119.0290172716409 7.736350323416872e-15 1.1935972742468772e-14 0.0 0.0 0.0 0.0 0.0 0.0 0.045850619430567154 -3.9606478752908356 -5.966491064901927 -3.1478285422545746 25.162909493269428 0.6245353067926349 0.0 0.0 7.951386703658792e-16
0.0 0.0 820.231486751202 29.828271666140896 -5.039356798158289 3.4027746145691826 0.0 0.0 0.0 0.16479382183021055 -10.739452330454743 0.9815383578503271 0.0640882204746096 30.11337816502646 0.2952282707112998 0.0 0.0 7.951386703658792e-16 0.0 0.0 0.0 -0.017008253254481697 1.1422229054844693 3.0747876578448756 4.412728546617447 -1.4506649343989375e-16 1.3981140568471553e-15 0.0 0.0 -3.975693351829396e-16 -28.34383848891139 27.586046457343905 74.33294136791609 -27.426172547001645 7.247954202951017e-17 -1.706785698416759e-14 -7.95138670365879e-16 3.9756933518293955e-16 -8.572588789882134e-15 0.0 0.0 -3.975693351829396e-16 -14.120731005972619 1.4186485029767122 -7.8409159436919165 0.0 0.0 -3.975693351829396e-16 19.950494825564913 -50.548588396645776 -24.782411044398238 119.2923206365921 0.0 0.0 -7.951386703658792e-16 0.0 0.0 0.0 0.0 0.0 0.0551955676076674 -3.879923354347591 -5.851963885597891 -3.1493955002741743 25.05090788223781 0.6045488650946004 0.0 -3.1805546814635168e-15 0.0
